<?xml version="1.0" standalone="no"?>
<!DOCTYPE svg PUBLIC "-//W3C//DTD SVG 20010904//EN"
 "http://www.w3.org/TR/2001/REC-SVG-20010904/DTD/svg10.dtd">
<svg version="1.0" xmlns="http://www.w3.org/2000/svg"
 width="700.000000pt" height="700.000000pt" viewBox="0 0 700.000000 700.000000"
 preserveAspectRatio="xMidYMid meet">
<metadata>
Created by potrace 1.11, written by Peter Selinger 2001-2013
</metadata>
<g transform="translate(0.000000,700.000000) scale(0.100000,-0.100000)"
fill="#000000" stroke="none">
<path d="M1869 6396 c-19 -17 -66 -57 -104 -89 -39 -33 -81 -69 -95 -80 -47
-41 -375 -320 -424 -361 -27 -23 -58 -50 -70 -61 -12 -11 -43 -37 -68 -58 -26
-21 -53 -43 -60 -50 -7 -7 -58 -50 -113 -97 -55 -46 -105 -89 -111 -94 -6 -6
-33 -29 -60 -51 -109 -91 -184 -157 -184 -162 0 -6 57 -78 83 -105 7 -7 29
-33 49 -58 20 -25 47 -57 60 -71 13 -15 57 -67 98 -117 41 -50 80 -90 87 -89
9 2 145 114 343 283 14 12 63 54 110 94 47 40 99 84 115 99 17 14 59 51 95 81
36 30 67 57 70 60 3 3 32 27 65 55 33 27 62 52 65 55 3 3 48 41 100 85 52 44
97 82 100 85 3 3 32 28 65 56 98 82 116 98 149 126 17 15 34 28 39 28 19 0 1
32 -61 105 -38 44 -122 144 -189 221 l-120 142 -34 -32z"/>
<path d="M4940 6248 c-74 -89 -158 -189 -187 -224 l-52 -62 47 -40 c26 -22
108 -91 182 -152 74 -62 155 -129 180 -150 25 -21 74 -62 110 -91 36 -30 74
-61 85 -71 170 -142 237 -198 330 -273 61 -49 116 -95 123 -102 7 -7 73 -62
147 -123 123 -101 155 -122 155 -102 0 4 13 21 28 37 15 17 50 57 78 90 27 33
59 71 71 85 132 155 183 216 183 221 0 6 -265 230 -470 397 -78 64 -225 186
-236 197 -35 32 -627 520 -632 522 -4 1 -68 -71 -142 -159z"/>
<path d="M3438 5805 c-1 -1 -48 -6 -103 -9 -100 -7 -140 -11 -205 -21 -19 -3
-53 -8 -75 -11 -235 -34 -503 -122 -755 -250 -492 -247 -897 -652 -1149 -1147
-58 -113 -147 -320 -141 -329 1 -2 -5 -21 -14 -43 -50 -129 -100 -379 -122
-602 -5 -55 -5 -383 0 -413 2 -14 7 -55 11 -92 7 -72 8 -84 30 -198 72 -384
261 -796 512 -1115 166 -212 418 -441 633 -575 30 -19 57 -37 60 -41 3 -3 10
-8 15 -10 6 -2 50 -26 98 -53 381 -210 824 -321 1272 -320 111 0 313 12 325
19 3 1 32 6 65 10 32 3 62 8 65 10 3 2 22 6 42 9 283 45 670 203 946 386 261
174 441 341 659 614 74 93 222 337 281 466 90 197 186 498 206 650 3 25 8 56
11 70 3 14 8 52 11 85 3 33 7 71 10 85 5 34 5 389 0 420 -3 14 -7 52 -11 85
-9 87 -24 178 -47 275 -11 47 -21 92 -23 100 -25 108 -115 343 -186 482 -159
318 -360 575 -640 823 -79 70 -290 220 -391 278 -292 168 -617 282 -935 328
-39 5 -82 12 -95 14 -13 3 -93 8 -178 11 -85 3 -160 7 -167 9 -6 2 -13 2 -15
0z m267 -595 c132 -16 170 -22 288 -51 639 -156 1173 -623 1415 -1239 100
-254 141 -486 136 -770 -5 -330 -86 -641 -241 -928 -122 -227 -312 -453 -513
-612 -36 -28 -72 -57 -80 -64 -9 -7 -63 -42 -122 -79 -322 -202 -698 -310
-1083 -310 -90 0 -247 9 -292 17 -10 2 -36 7 -58 10 -643 114 -1197 525 -1489
1105 -80 159 -160 398 -180 534 -4 27 -9 58 -11 69 -30 154 -25 466 11 662
110 605 522 1156 1078 1440 146 74 346 148 463 170 10 2 36 9 58 14 39 10 81
17 210 32 83 9 326 9 410 0z"/>
<path d="M3209 4203 c-1 -978 -1 -1304 2 -1307 2 -2 101 -61 219 -131 118 -71
332 -198 475 -283 143 -85 272 -162 287 -171 15 -9 76 -45 135 -81 59 -36 112
-67 116 -69 4 -1 40 -22 80 -46 l71 -43 15 21 c30 42 201 329 201 337 0 4 -53
38 -117 75 -65 38 -179 104 -253 148 -74 44 -151 89 -170 100 -163 91 -607
353 -615 362 -6 8 -10 278 -9 768 l0 757 -218 0 -218 0 -1 -437z"/>
</g>
</svg>
